<?xml version="1.0" encoding="UTF-8"?>
<!DOCTYPE svg PUBLIC "-//W3C//DTD SVG 1.1//EN" "http://www.w3.org/Graphics/SVG/1.1/DTD/svg11.dtd">
<!-- Creator: CorelDRAW 2018 (64 Bit Versión de evaluación) -->
<svg xmlns="http://www.w3.org/2000/svg" xml:space="preserve" width="346px" height="318px" version="1.1" style="shape-rendering:geometricPrecision; text-rendering:geometricPrecision; image-rendering:optimizeQuality; fill-rule:evenodd; clip-rule:evenodd" viewBox="0 0 316330 290280" xmlns:xlink="http://www.w3.org/1999/xlink">
 <defs>
  <style type="text/css">
   <![CDATA[
    .fil1 {fill:#11C5E9}
    .fil2 {fill:#FCFDFD}
    .fil0 {fill:white}
   ]]>
  </style>
 </defs>
 <g id="Capa_x0020_1">
  <metadata id="CorelCorpID_0Corel-Layer"/>
  <g id="_1801678321712">
   <path class="fil0" d="M78680 202770l-13650 250 -5130 -90 -90 -14620 19610 80c90,4540 910,11430 -740,14380zm46170 -202770l39660 0 730 0 640 0 740 0 550 0 640 0 550 0 460 0 450 0 370 0 370 0 1920 0 12000 0c2930,670 5130,2270 5950,6300 -640,9250 -4580,5380 -7510,10510 0,21100 -4210,73060 7510,85500 190,80 370,330 460,420l5590 5880c11170,10850 41030,17990 57610,26310 18780,9420 37930,24550 49010,42460 1190,2020 1100,920 1370,3530 4770,12690 10450,21940 8520,38670l-305110 0 -6320 250c0,-34630 -3120,-32620 8420,-32620 0,-12100 -2560,-40180 4040,-48590 9520,-12270 29210,-6810 32790,4380l1650 6720 4580 500c5580,340 6870,0 7320,5470l190 4960 19320 80 280 -26140c640,-11430 6040,-20180 12730,-25220 8610,-6560 13370,-8410 28310,-8410l0 -8400c-9620,-840 -9620,-13960 0,-14720l0 -11600c-5040,-420 -14200,-8230 0,-15720l0 -8490c-9620,-750 -9620,-13870 0,-14710l0 -11510c-3300,-1770 -5960,-2110 -6970,-6810 -820,-3790 1650,-7490 4310,-8500 550,-330 2560,-420 5400,-500l740 0 730 0zm-4210 187890l-15760 420 -4400 -90c-90,-14290 0,-28750 -90,-43120 0,-15220 3760,-25390 20790,-22620 280,9080 1380,61460 -540,65410zm-41960 -7150l-14650 250 -4220 0 0 -13030 1010 0 18600 340c0,4120 640,9830 -740,12440zm213240 24720c-15110,-2780 -22990,-5220 -40120,-5130 -14100,0 -27750,1590 -41580,3190 -79420,9170 -69160,-10930 -69250,-101460 0,-16730 -830,-75160 180,-87100l29680 90c6870,47920 -19140,92130 39300,116090 19960,8240 37550,13120 52850,24890 12000,9240 26750,27320 28940,49430zm-264620 7060l-4680 0 -90 -20090 550 -3540c-1550,-840 -2290,-1340 -4760,-2180 0,-11010 -180,-22190 0,-33210 90,-13450 12910,-17310 17950,-9410 1930,2520 2200,2600 2570,6300 -8890,0 -8610,-920 -8430,8330l0 53710 -3110 90z"/>
   <path class="fil1" d="M253360 187210c1470,-3270 -180,-2770 4310,-1680l270 3200c-3850,1090 -2840,1430 -4580,-1520zm-82350 -5210l5590 420c1740,6390 830,9170 -6780,7900 -2200,-4200 -2470,-4960 1190,-8320zm39480 -6720l4120 -170c740,3780 190,4290 -3480,4370 -1280,-2100 -1920,-1090 -640,-4200zm-13830 -22790c-640,-7560 10900,-8570 11360,-1000 550,7900 -10810,8070 -11360,1000zm-48550 -7390c-1740,-12700 15940,-13870 17320,-2780 1370,11770 -15850,13280 -17320,2780zm12740 -28000c-4130,-18830 18870,-5970 8060,760 -2930,1850 -4580,840 -6320,170l-1190 -590c-100,-80 -370,-250 -550,-340zm131070 88360c-2190,-22110 -16940,-40190 -28940,-49430 -15300,-11770 -32890,-16650 -52850,-24890 -58440,-23960 -32430,-68170 -39300,-116090l-29680 -90c-1010,11940 -180,70370 -180,87100 90,90530 -10170,110630 69250,101460 13830,-1600 27480,-3190 41580,-3190 17130,-90 25010,2350 40120,5130z"/>
   <path class="fil1" d="M266460 280270l21070 170c2840,1940 1920,1090 3290,4540 740,1770 1380,2940 1930,5300l5220 -250 6410 0 -2560 -6060c820,-3610 450,-1430 -740,-1680 -910,-1090 0,250 -1550,-1930 -280,-340 -1100,-1680 -1290,-2020 -910,-1510 -1000,-1770 -1740,-3450l-1280 -2520c-1280,-3110 -2010,-4030 -3570,-6300l-10440 0c1100,2180 1460,2520 2100,5290l-11540 250 -3840 -1680c-920,-5290 -1200,-25890 360,-29760 5310,-2520 13920,-1170 20240,-1170 7330,0 14930,-2270 17220,3950 -910,5710 -450,12020 -450,17900 180,10010 2010,10510 -7330,10510l1100 4210 1010 2100c4850,3530 -1100,3110 6870,3110 7420,-5380 9250,-6480 9160,-18920 0,-8230 730,-18320 -460,-26310 -2020,-9250 -13380,-8410 -24000,-8410 -14200,0 -30050,-3110 -33800,8070 -1560,4710 -1100,35400 -370,37830 1010,3450 5130,7150 8980,7230z"/>
   <path class="fil0" d="M172570 265060l0 4200c0,5970 4310,10510 9990,11350l47440 170 -90 -9500c-9800,0 -19690,0 -29490,0 -20890,0 -18050,1600 -18050,-11180 12180,-3110 34630,1260 47720,-1090l100 -3450 730 -6310 -44150 170 -4400 0c0,-5630 -1650,-10590 3390,-11680l44430 0 0 -9500c-4130,-2190 -43510,-1350 -47090,-510 -5400,1180 -8420,3950 -9980,8750 -2110,6130 -1650,22860 -550,28580z"/>
   <path class="fil0" d="M115410 248920l-34620 500 -4310 0c0,-14290 -910,-11770 13740,-11680 20800,80 25740,-3370 25830,6300 100,2440 0,3200 -640,4880zm-44060 31770l5040 0 0 -21430c8700,0 32890,-1010 39760,670l0 20850 4490 -90 5030 0c0,-9660 1280,-37740 -730,-45140 -2470,-7990 -10720,-8410 -21070,-8410 -7970,90 -23450,-840 -29220,1270 -3570,1340 -5950,3780 -7230,7310 -100,170 -190,500 -280,760 -2010,5880 -1010,37990 -1010,44300l5220 -90z"/>
   <path class="fil0" d="M49370 241860l-90 7390 -34620 260 -4770 -590c0,-1770 -180,-4290 0,-5970 460,-7740 2930,-5210 22630,-5210 6870,0 16210,-2270 16850,4120zm-44150 38920l4670 -340 0 -21100 39570 -80 0 3700 -180 17820 5310 -90 4400 90 -280 -44140c-1000,-3950 -3290,-5970 -6960,-7730 -6320,-3030 -38650,-2350 -43320,-670 -6510,2520 -8060,5970 -8430,12100l0 1680 0 1850 0 2020 0 2190 0 2270 0 920 0 1010 0 920 0 930 0 920 0 1010 0 930 0 920 0 930 0 1010 0 920 0 920 0 1010 0 930 0 920 0 1010 0 930 0 920 0 1010 0 920 0 930 0 1010 0 920 0 930 0 1010 0 920 0 930 0 1010 0 920 0 920 0 1010 0 930 5220 0z"/>
   <path class="fil1" d="M242370 280860l7330 90 0 -47500 0 -6310c-17040,0 -12550,-4790 -12550,53640l5220 80z"/>
   <path class="fil0" d="M137490 280690l4670 -160 0 -21190 15210 170 270 3450 -270 2100 9800 330 -370 -7730c-730,-2940 -2020,-4290 -4580,-5890l-7970 -2520c-6590,-500 -15200,0 -22070,0l0 31530 5310 -90z"/>
   <path class="fil2" d="M148110 145100c1470,10500 18690,8990 17320,-2780 -1380,-11090 -19060,-9920 -17320,2780z"/>
   <path class="fil2" d="M160850 117100c180,90 450,260 550,340l1190 590c1740,670 3390,1680 6320,-170 10810,-6730 -12190,-19590 -8060,-760z"/>
   <path class="fil2" d="M196660 152490c550,7070 11910,6900 11360,-1000 -460,-7570 -12000,-6560 -11360,1000z"/>
   <path class="fil2" d="M171010 182000c-3660,3360 -3390,4120 -1190,8320 7610,1270 8520,-1510 6780,-7900l-5590 -420z"/>
   <path class="fil2" d="M211130 179480c3670,-80 4220,-590 3480,-4370l-4120 170c-1280,3110 -640,2100 640,4200z"/>
   <path class="fil2" d="M257670 185530c-4490,-1090 -2840,-1590 -4310,1680 1740,2950 730,2610 4580,1520l-270 -3200z"/>
  </g>
 </g>
</svg>